<svg xmlns="http://www.w3.org/2000/svg" xmlns:xlink="http://www.w3.org/1999/xlink" width="254" zoomAndPan="magnify" viewBox="0 0 190.5 189.000001" height="252" preserveAspectRatio="xMidYMid meet" version="1.2"><defs><clipPath id="52dd99bcee"><path d="M 0.253906 0 L 189.75 0 L 189.75 188.003906 L 0.253906 188.003906 Z M 0.253906 0 "/></clipPath></defs><g id="379355f9ac"><g clip-rule="nonzero" clip-path="url(#52dd99bcee)"><path style=" stroke:none;fill-rule:nonzero;fill:#ffffff;fill-opacity:1;" d="M 0.253906 0 L 189.75 0 L 189.75 188.003906 L 0.253906 188.003906 Z M 0.253906 0 "/></g><g style="fill:#000000;fill-opacity:1;"><g transform="translate(34.570967, 129.564419)"><path style="stroke:none" d="M 5.46875 -3.28125 C 7.789062 -3.34375 9.445312 -3.867188 10.4375 -4.859375 C 11.4375 -5.859375 12 -7.035156 12.125 -8.390625 C 12.257812 -9.753906 12.328125 -12.128906 12.328125 -15.515625 L 12.328125 -58.484375 C 12.328125 -61.273438 12.425781 -63.664062 12.625 -65.65625 L 5.46875 -65.25 L 5.46875 -69.625 C 14.75 -69.757812 22.144531 -69.828125 27.65625 -69.828125 C 37.53125 -69.828125 45.003906 -68.101562 50.078125 -64.65625 C 55.148438 -61.207031 57.6875 -56.132812 57.6875 -49.4375 C 57.6875 -45.59375 56.675781 -41.910156 54.65625 -38.390625 C 52.632812 -34.878906 49.148438 -31.960938 44.203125 -29.640625 C 39.265625 -27.316406 32.71875 -26.15625 24.5625 -26.15625 C 23.039062 -26.15625 21.847656 -26.191406 20.984375 -26.265625 L 20.984375 -11.84375 C 20.984375 -8.320312 20.882812 -5.703125 20.6875 -3.984375 L 29.84375 -4.46875 L 29.84375 0 L 5.46875 0 Z M 27.453125 -30.046875 C 31.234375 -30.046875 34.695312 -30.789062 37.84375 -32.28125 C 41 -33.769531 43.488281 -35.921875 45.3125 -38.734375 C 47.132812 -41.554688 48.046875 -44.859375 48.046875 -48.640625 C 48.046875 -54.609375 46.222656 -58.984375 42.578125 -61.765625 C 38.929688 -64.554688 33.890625 -65.953125 27.453125 -65.953125 C 25.203125 -65.953125 23.628906 -65.484375 22.734375 -64.546875 C 21.835938 -63.617188 21.320312 -62.507812 21.1875 -61.21875 C 21.050781 -59.925781 20.984375 -57.554688 20.984375 -54.109375 L 20.984375 -30.34375 C 22.640625 -30.144531 24.796875 -30.046875 27.453125 -30.046875 Z M 27.453125 -30.046875 "/></g></g><g style="fill:#000000;fill-opacity:1;"><g transform="translate(74.017206, 129.564419)"><path style="stroke:none" d="M 21.390625 -3.28125 C 24.234375 -3.414062 26.070312 -4.210938 26.90625 -5.671875 C 27.738281 -7.128906 28.15625 -9.382812 28.15625 -12.4375 L 28.15625 -15.515625 L 28.25 -26.859375 L 10.9375 -54.203125 C 7.882812 -58.910156 6.09375 -62.660156 5.5625 -65.453125 L -0.59375 -65.25 L -0.59375 -69.625 L 25.0625 -69.625 L 25.0625 -66.34375 C 19.894531 -66.34375 17.3125 -64.882812 17.3125 -61.96875 C 17.3125 -60.25 18.140625 -58.09375 19.796875 -55.5 L 22.875 -50.625 C 27.125 -43.726562 30.804688 -38.125 33.921875 -33.8125 L 34.125 -33.8125 C 36.4375 -38.394531 39.984375 -45.160156 44.765625 -54.109375 L 46.84375 -57.984375 C 48.769531 -61.640625 50.363281 -64.160156 51.625 -65.546875 L 43.765625 -65.25 L 43.765625 -69.625 L 64.0625 -69.625 L 64.0625 -66.34375 C 60.945312 -66.144531 58.34375 -65.082031 56.25 -63.15625 C 54.15625 -61.238281 51.882812 -58.023438 49.4375 -53.515625 L 36.90625 -29.84375 C 36.832031 -26.59375 36.78125 -23.144531 36.75 -19.5 C 36.71875 -15.851562 36.734375 -13.300781 36.796875 -11.84375 C 36.796875 -8.320312 36.695312 -5.703125 36.5 -3.984375 L 44.765625 -4.375 L 44.765625 0 L 21.390625 0 Z M 21.390625 -3.28125 "/></g></g><g style="fill:#000000;fill-opacity:1;"><g transform="translate(117.781736, 129.564419)"><path style="stroke:none" d="M 10.34375 1.59375 C 7.425781 1.59375 4.9375 0.945312 2.875 -0.34375 C 0.820312 -1.632812 -0.203125 -3.34375 -0.203125 -5.46875 C -0.203125 -6.925781 0.191406 -8.148438 0.984375 -9.140625 C 1.785156 -10.140625 2.945312 -10.640625 4.46875 -10.640625 C 5.800781 -10.640625 6.796875 -10.191406 7.453125 -9.296875 C 8.117188 -8.398438 8.453125 -7.390625 8.453125 -6.265625 C 8.453125 -5.335938 8.320312 -4.609375 8.0625 -4.078125 C 8.382812 -3.484375 8.960938 -3.050781 9.796875 -2.78125 C 10.628906 -2.519531 11.34375 -2.421875 11.9375 -2.484375 C 13.988281 -2.554688 15.476562 -3.46875 16.40625 -5.21875 C 17.34375 -6.976562 17.8125 -9.847656 17.8125 -13.828125 L 17.8125 -65.65625 L 7.65625 -65.25 L 7.65625 -69.625 L 34.125 -69.625 L 34.125 -66.34375 C 31.070312 -66.34375 29.03125 -65.492188 28 -63.796875 C 26.96875 -62.109375 26.453125 -59.675781 26.453125 -56.5 L 26.453125 -24.265625 C 26.453125 -17.972656 25.90625 -12.953125 24.8125 -9.203125 C 23.71875 -5.453125 21.992188 -2.710938 19.640625 -0.984375 C 17.285156 0.734375 14.1875 1.59375 10.34375 1.59375 Z M 10.34375 1.59375 "/></g></g></g></svg>